<svg width="512" height="512" xmlns="http://www.w3.org/2000/svg" viewBox="0 0 512 512">
  <!-- Folder body -->
  <rect x="40" y="160" width="432" height="290" rx="24" fill="#1a1d27" stroke="#2a2d3a" stroke-width="8"/>

  <!-- Folder tab -->
  <path d="M40 160 L40 120 Q40 100 60 100 L220 100 Q240 100 252 120 L278 160 Z" fill="#f59e0b"/>

  <!-- Box 1 -->
  <rect x="70" y="220" width="100" height="90" rx="12" fill="#f59e0b" opacity="0.9"/>
  <rect x="60" y="206" width="120" height="22" rx="6" fill="#fcd34d"/>

  <!-- Box 2 -->
  <rect x="200" y="230" width="112" height="80" rx="12" fill="#f59e0b" opacity="0.75"/>
  <rect x="190" y="216" width="132" height="22" rx="6" fill="#fcd34d" opacity="0.9"/>

  <!-- Box 3 -->
  <rect x="344" y="242" width="96" height="68" rx="12" fill="#f59e0b" opacity="0.55"/>
  <rect x="336" y="228" width="112" height="20" rx="6" fill="#fcd34d" opacity="0.7"/>

  <!-- Shine lines -->
  <line x1="108" y1="228" x2="108" y2="300" stroke="#fcd34d" stroke-width="5" stroke-linecap="round" opacity="0.35"/>
  <line x1="248" y1="238" x2="248" y2="302" stroke="#fcd34d" stroke-width="5" stroke-linecap="round" opacity="0.3"/>
  <line x1="384" y1="250" x2="384" y2="302" stroke="#fcd34d" stroke-width="5" stroke-linecap="round" opacity="0.25"/>
</svg>
